<mxfile host="Electron" agent="Mozilla/5.0 (Windows NT 10.0; Win64; x64) AppleWebKit/537.36 (KHTML, like Gecko) draw.io/26.1.1 Chrome/132.0.6834.210 Electron/34.3.3 Safari/537.36" version="26.1.1">
  <diagram name="Page-1" id="OPphfTxZR9TJYS7WKoCl">
    <mxGraphModel dx="1050" dy="621" grid="1" gridSize="10" guides="1" tooltips="1" connect="1" arrows="1" fold="1" page="1" pageScale="1" pageWidth="850" pageHeight="1100" math="0" shadow="0">
      <root>
        <mxCell id="0" />
        <mxCell id="1" parent="0" />
        <mxCell id="-IGh7Rk-54YWZfMcdIw7-1" value="" style="rounded=0;whiteSpace=wrap;html=1;" parent="1" vertex="1">
          <mxGeometry x="30" y="70" width="800" height="500" as="geometry" />
        </mxCell>
        <mxCell id="-IGh7Rk-54YWZfMcdIw7-7" value="" style="rounded=1;whiteSpace=wrap;html=1;dashed=1;" parent="1" vertex="1">
          <mxGeometry x="120" y="130" width="610" height="380" as="geometry" />
        </mxCell>
        <mxCell id="-IGh7Rk-54YWZfMcdIw7-6" value="" style="rounded=1;html=1;border=dotted;dashed=1;" parent="1" vertex="1">
          <mxGeometry x="260" y="200" width="340" height="240" as="geometry" />
        </mxCell>
        <mxCell id="-IGh7Rk-54YWZfMcdIw7-5" value="" style="endArrow=none;html=1;rounded=0;exitX=0;exitY=0.5;exitDx=0;exitDy=0;entryX=1;entryY=0.5;entryDx=0;entryDy=0;" parent="1" source="-IGh7Rk-54YWZfMcdIw7-1" target="-IGh7Rk-54YWZfMcdIw7-4" edge="1">
          <mxGeometry width="50" height="50" relative="1" as="geometry">
            <mxPoint x="30" y="270" as="sourcePoint" />
            <mxPoint x="830" y="270" as="targetPoint" />
          </mxGeometry>
        </mxCell>
        <mxCell id="-IGh7Rk-54YWZfMcdIw7-2" value="" style="endArrow=none;html=1;rounded=0;entryX=0.5;entryY=0;entryDx=0;entryDy=0;exitX=0.5;exitY=1;exitDx=0;exitDy=0;" parent="1" source="-IGh7Rk-54YWZfMcdIw7-1" target="-IGh7Rk-54YWZfMcdIw7-1" edge="1">
          <mxGeometry width="50" height="50" relative="1" as="geometry">
            <mxPoint x="400" y="350" as="sourcePoint" />
            <mxPoint x="450" y="300" as="targetPoint" />
          </mxGeometry>
        </mxCell>
        <mxCell id="-IGh7Rk-54YWZfMcdIw7-3" value="" style="endArrow=none;html=1;rounded=0;exitX=0;exitY=0.5;exitDx=0;exitDy=0;entryX=1;entryY=0.5;entryDx=0;entryDy=0;" parent="1" source="-IGh7Rk-54YWZfMcdIw7-4" target="-IGh7Rk-54YWZfMcdIw7-1" edge="1">
          <mxGeometry width="50" height="50" relative="1" as="geometry">
            <mxPoint x="400" y="350" as="sourcePoint" />
            <mxPoint x="450" y="300" as="targetPoint" />
          </mxGeometry>
        </mxCell>
        <mxCell id="-IGh7Rk-54YWZfMcdIw7-4" value="Purpose/Producrt&lt;div&gt;Concept&lt;/div&gt;&lt;div&gt;&lt;b style=&quot;background-color: rgb(255, 255, 51); line-height: 180%;&quot;&gt;&lt;u&gt;AgriMitra&lt;/u&gt;&lt;/b&gt;&lt;/div&gt;" style="rounded=1;whiteSpace=wrap;html=1;" parent="1" vertex="1">
          <mxGeometry x="365" y="290" width="120" height="60" as="geometry" />
        </mxCell>
        <mxCell id="-IGh7Rk-54YWZfMcdIw7-8" value="Tools/Method/Theory/Application/Process Involved" style="text;html=1;align=center;verticalAlign=middle;whiteSpace=wrap;rounded=0;" parent="1" vertex="1">
          <mxGeometry x="30" y="70" width="290" height="30" as="geometry" />
        </mxCell>
        <mxCell id="-IGh7Rk-54YWZfMcdIw7-9" value="Application Standards and design specification/Principles and experiments" style="text;html=1;align=center;verticalAlign=middle;whiteSpace=wrap;rounded=0;" parent="1" vertex="1">
          <mxGeometry x="610" y="70" width="220" height="30" as="geometry" />
        </mxCell>
        <mxCell id="-IGh7Rk-54YWZfMcdIw7-10" value="Software/Simulation/Skill/Mathematical Requirement" style="text;html=1;align=center;verticalAlign=middle;whiteSpace=wrap;rounded=0;" parent="1" vertex="1">
          <mxGeometry x="60" y="530" width="150" height="40" as="geometry" />
        </mxCell>
        <mxCell id="-IGh7Rk-54YWZfMcdIw7-11" value="Component Materials strenth criteris (exparations - varieties/testind requirements" style="text;html=1;align=center;verticalAlign=middle;whiteSpace=wrap;rounded=0;" parent="1" vertex="1">
          <mxGeometry x="590" y="540" width="240" height="30" as="geometry" />
        </mxCell>
        <mxCell id="TG8jJQnDLufPrwC_FtDc-1" value="Login" style="text;html=1;align=center;verticalAlign=middle;whiteSpace=wrap;rounded=0;fillColor=#00994D;" vertex="1" parent="1">
          <mxGeometry x="305" y="240" width="60" height="30" as="geometry" />
        </mxCell>
        <mxCell id="TG8jJQnDLufPrwC_FtDc-2" value="Add to card" style="text;html=1;align=center;verticalAlign=middle;whiteSpace=wrap;rounded=0;fillColor=#00994D;" vertex="1" parent="1">
          <mxGeometry x="285" y="150" width="100" height="30" as="geometry" />
        </mxCell>
        <mxCell id="TG8jJQnDLufPrwC_FtDc-3" value="VIew Products" style="text;html=1;align=center;verticalAlign=middle;whiteSpace=wrap;rounded=0;fillColor=light-dark(#00994d, #ededed);" vertex="1" parent="1">
          <mxGeometry x="150" y="190" width="70" height="30" as="geometry" />
        </mxCell>
        <mxCell id="TG8jJQnDLufPrwC_FtDc-4" value="Upload products" style="text;html=1;align=center;verticalAlign=middle;whiteSpace=wrap;rounded=0;fillColor=light-dark(#00994d, #ededed);fillStyle=auto;" vertex="1" parent="1">
          <mxGeometry x="150" y="260" width="60" height="30" as="geometry" />
        </mxCell>
        <mxCell id="TG8jJQnDLufPrwC_FtDc-5" value="Order Products" style="text;html=1;align=center;verticalAlign=middle;whiteSpace=wrap;rounded=0;fillColor=#00994D;" vertex="1" parent="1">
          <mxGeometry x="50" y="120" width="60" height="30" as="geometry" />
        </mxCell>
        <mxCell id="TG8jJQnDLufPrwC_FtDc-6" value="Chat with chatbot" style="text;html=1;align=center;verticalAlign=middle;whiteSpace=wrap;rounded=0;fillColor=#00994D;" vertex="1" parent="1">
          <mxGeometry x="50" y="170" width="60" height="30" as="geometry" />
        </mxCell>
        <mxCell id="TG8jJQnDLufPrwC_FtDc-7" value="Predict yield" style="text;html=1;align=center;verticalAlign=middle;whiteSpace=wrap;rounded=0;fillColor=#00994D;" vertex="1" parent="1">
          <mxGeometry x="50" y="230" width="60" height="30" as="geometry" />
        </mxCell>
        <mxCell id="TG8jJQnDLufPrwC_FtDc-10" value="Stage 1" style="text;html=1;align=center;verticalAlign=middle;whiteSpace=wrap;rounded=0;" vertex="1" parent="1">
          <mxGeometry x="400" y="230" width="60" height="30" as="geometry" />
        </mxCell>
        <mxCell id="TG8jJQnDLufPrwC_FtDc-11" value="Stage 2" style="text;html=1;align=center;verticalAlign=middle;whiteSpace=wrap;rounded=0;" vertex="1" parent="1">
          <mxGeometry x="400" y="150" width="60" height="30" as="geometry" />
        </mxCell>
        <mxCell id="TG8jJQnDLufPrwC_FtDc-12" value="Stage 3" style="text;html=1;align=center;verticalAlign=middle;whiteSpace=wrap;rounded=0;" vertex="1" parent="1">
          <mxGeometry x="400" y="80" width="60" height="30" as="geometry" />
        </mxCell>
        <mxCell id="TG8jJQnDLufPrwC_FtDc-13" value="OSI model" style="text;html=1;align=center;verticalAlign=middle;whiteSpace=wrap;rounded=0;fillColor=#CCCC00;" vertex="1" parent="1">
          <mxGeometry x="485" y="240" width="60" height="30" as="geometry" />
        </mxCell>
        <mxCell id="TG8jJQnDLufPrwC_FtDc-14" value="Abbreviation" style="text;html=1;align=center;verticalAlign=middle;whiteSpace=wrap;rounded=0;fillColor=#CCCC00;" vertex="1" parent="1">
          <mxGeometry x="630" y="260" width="60" height="30" as="geometry" />
        </mxCell>
        <mxCell id="TG8jJQnDLufPrwC_FtDc-15" value="IEEE standards" style="text;html=1;align=center;verticalAlign=middle;whiteSpace=wrap;rounded=0;fillColor=#CCCC00;" vertex="1" parent="1">
          <mxGeometry x="620" y="160" width="60" height="30" as="geometry" />
        </mxCell>
        <mxCell id="TG8jJQnDLufPrwC_FtDc-16" value="Tools standards" style="text;html=1;align=center;verticalAlign=middle;whiteSpace=wrap;rounded=0;fillColor=#CCCC00;" vertex="1" parent="1">
          <mxGeometry x="485" y="150" width="60" height="30" as="geometry" />
        </mxCell>
        <mxCell id="TG8jJQnDLufPrwC_FtDc-17" value="Testing" style="text;html=1;align=center;verticalAlign=middle;whiteSpace=wrap;rounded=0;fillColor=#CCCC00;" vertex="1" parent="1">
          <mxGeometry x="750" y="120" width="60" height="30" as="geometry" />
        </mxCell>
        <mxCell id="TG8jJQnDLufPrwC_FtDc-18" value="Validation" style="text;html=1;align=center;verticalAlign=middle;whiteSpace=wrap;rounded=0;fillColor=#CCCC00;" vertex="1" parent="1">
          <mxGeometry x="750" y="210" width="60" height="30" as="geometry" />
        </mxCell>
        <mxCell id="TG8jJQnDLufPrwC_FtDc-19" value="Understanding of client server architecture" style="text;html=1;align=center;verticalAlign=middle;whiteSpace=wrap;rounded=0;fillColor=#00FFFF;" vertex="1" parent="1">
          <mxGeometry x="290" y="360" width="100" height="60" as="geometry" />
        </mxCell>
        <mxCell id="TG8jJQnDLufPrwC_FtDc-20" value="MERN stack" style="text;html=1;align=center;verticalAlign=middle;whiteSpace=wrap;rounded=0;fillColor=#00FFFF;" vertex="1" parent="1">
          <mxGeometry x="150" y="360" width="60" height="30" as="geometry" />
        </mxCell>
        <mxCell id="TG8jJQnDLufPrwC_FtDc-21" value="Knowledge of desinging website" style="text;html=1;align=center;verticalAlign=middle;whiteSpace=wrap;rounded=0;fillColor=#00FFFF;" vertex="1" parent="1">
          <mxGeometry x="150" y="430" width="100" height="40" as="geometry" />
        </mxCell>
        <mxCell id="TG8jJQnDLufPrwC_FtDc-22" value="VS code ide" style="text;html=1;align=center;verticalAlign=middle;whiteSpace=wrap;rounded=0;fillColor=#00FFFF;" vertex="1" parent="1">
          <mxGeometry x="305" y="460" width="60" height="30" as="geometry" />
        </mxCell>
        <mxCell id="TG8jJQnDLufPrwC_FtDc-23" value="Postman" style="text;html=1;align=center;verticalAlign=middle;whiteSpace=wrap;rounded=0;fillColor=#00FFFF;" vertex="1" parent="1">
          <mxGeometry x="50" y="350" width="60" height="30" as="geometry" />
        </mxCell>
        <mxCell id="TG8jJQnDLufPrwC_FtDc-24" value="Mongodb" style="text;html=1;align=center;verticalAlign=middle;whiteSpace=wrap;rounded=0;fillColor=#00FFFF;" vertex="1" parent="1">
          <mxGeometry x="50" y="410" width="60" height="30" as="geometry" />
        </mxCell>
        <mxCell id="TG8jJQnDLufPrwC_FtDc-25" value="network" style="text;html=1;align=center;verticalAlign=middle;whiteSpace=wrap;rounded=0;fillColor=#FF00FF;" vertex="1" parent="1">
          <mxGeometry x="520" y="345" width="60" height="30" as="geometry" />
        </mxCell>
        <mxCell id="TG8jJQnDLufPrwC_FtDc-26" value="device" style="text;html=1;align=center;verticalAlign=middle;whiteSpace=wrap;rounded=0;fillColor=#FF00FF;" vertex="1" parent="1">
          <mxGeometry x="460" y="380" width="60" height="30" as="geometry" />
        </mxCell>
        <mxCell id="TG8jJQnDLufPrwC_FtDc-27" value="mobile" style="text;html=1;align=center;verticalAlign=middle;whiteSpace=wrap;rounded=0;fillColor=#FF00FF;" vertex="1" parent="1">
          <mxGeometry x="630" y="375" width="60" height="30" as="geometry" />
        </mxCell>
        <mxCell id="TG8jJQnDLufPrwC_FtDc-28" value="computer" style="text;html=1;align=center;verticalAlign=middle;whiteSpace=wrap;rounded=0;fillColor=#FF00FF;" vertex="1" parent="1">
          <mxGeometry x="600" y="450" width="60" height="30" as="geometry" />
        </mxCell>
        <mxCell id="TG8jJQnDLufPrwC_FtDc-29" value="server" style="text;html=1;align=center;verticalAlign=middle;whiteSpace=wrap;rounded=0;fillColor=#FF00FF;" vertex="1" parent="1">
          <mxGeometry x="750" y="360" width="60" height="30" as="geometry" />
        </mxCell>
        <mxCell id="TG8jJQnDLufPrwC_FtDc-30" value="computer" style="text;html=1;align=center;verticalAlign=middle;whiteSpace=wrap;rounded=0;fillColor=#FF00FF;" vertex="1" parent="1">
          <mxGeometry x="750" y="430" width="60" height="30" as="geometry" />
        </mxCell>
      </root>
    </mxGraphModel>
  </diagram>
</mxfile>
